<svg width="13" height="12" viewBox="0 0 13 12" fill="none" xmlns="http://www.w3.org/2000/svg">
<path fill-rule="evenodd" clip-rule="evenodd" d="M12.7354 6C12.7354 9.31371 10.0491 12 6.73535 12C3.42164 12 0.735352 9.31371 0.735352 6C0.735352 2.68629 3.42164 0 6.73535 0C10.0491 0 12.7354 2.68629 12.7354 6ZM7.48535 3.00002C7.48535 3.41424 7.14956 3.75002 6.73535 3.75002C6.32114 3.75002 5.98535 3.41424 5.98535 3.00002C5.98535 2.58581 6.32114 2.25002 6.73535 2.25002C7.14956 2.25002 7.48535 2.58581 7.48535 3.00002ZM5.98535 5.25002C5.67469 5.25002 5.42285 5.50186 5.42285 5.81252C5.42285 6.12318 5.67469 6.37502 5.98535 6.37502H6.17539C6.29534 6.37502 6.38445 6.4861 6.35842 6.6032L6.01407 8.1528C5.83192 8.97248 6.45564 9.75002 7.29531 9.75002H7.48535C7.79601 9.75002 8.04785 9.49818 8.04785 9.18752C8.04785 8.87686 7.79601 8.62502 7.48535 8.62502H7.29531C7.17536 8.62502 7.08626 8.51394 7.11228 8.39685L7.45663 6.84724C7.63878 6.02757 7.01506 5.25002 6.17539 5.25002H5.98535Z" fill="url(#paint0_linear_233_2045)"/>
<defs>
<linearGradient id="paint0_linear_233_2045" x1="7.06462" y1="-8.15097e-09" x2="7.91682" y2="16.9609" gradientUnits="userSpaceOnUse">
<stop stop-color="#00A88F"/>
<stop offset="1" stop-color="#006B5A"/>
</linearGradient>
</defs>
</svg>
