<svg width="8" height="8" viewBox="0 0 8 8" fill="none" xmlns="http://www.w3.org/2000/svg">
<path d="M1.61941 0.940638C1.43196 0.753186 1.12804 0.753186 0.940592 0.940638C0.75314 1.12809 0.75314 1.43201 0.940592 1.61946L3.32118 4.00005L0.940592 6.38064C0.75314 6.56809 0.75314 6.87201 0.940592 7.05946C1.12804 7.24691 1.43196 7.24691 1.61941 7.05946L4 4.67887L6.38059 7.05946C6.56804 7.24691 6.87196 7.24691 7.05941 7.05946C7.24687 6.87201 7.24687 6.56809 7.05941 6.38064L4.67883 4.00005L7.05941 1.61946C7.24687 1.43201 7.24687 1.12809 7.05941 0.940638C6.87196 0.753186 6.56804 0.753186 6.38059 0.940638L4 3.32123L1.61941 0.940638Z" fill="#5C7780"/>
</svg>
